<svg width="25" height="25" viewBox="0 0 25 25" fill="none" xmlns="http://www.w3.org/2000/svg">
<mask id="mask0_53_68" style="mask-type:alpha" maskUnits="userSpaceOnUse" x="0" y="0" width="25" height="25">
<rect x="0.161499" y="0.625488" width="24" height="24" fill="#D9D9D9"/>
</mask>
<g mask="url(#mask0_53_68)">
<path d="M6.1615 14.6255H14.1615V12.6255H6.1615V14.6255ZM6.1615 11.6255H18.1615V9.62549H6.1615V11.6255ZM6.1615 8.62549H18.1615V6.62549H6.1615V8.62549ZM2.1615 22.6255V4.62549C2.1615 4.07549 2.35733 3.60465 2.749 3.21299C3.14067 2.82132 3.6115 2.62549 4.1615 2.62549H20.1615C20.7115 2.62549 21.1823 2.82132 21.574 3.21299C21.9657 3.60465 22.1615 4.07549 22.1615 4.62549V16.6255C22.1615 17.1755 21.9657 17.6463 21.574 18.038C21.1823 18.4297 20.7115 18.6255 20.1615 18.6255H6.1615L2.1615 22.6255ZM4.1615 17.8005L5.3365 16.6255H20.1615V4.62549H4.1615V17.8005Z" fill="#1C1B1F"/>
</g>
</svg>
