<svg width="25" height="25" viewBox="0 0 25 25" fill="none" xmlns="http://www.w3.org/2000/svg">
<mask id="mask0_49_53" style="mask-type:alpha" maskUnits="userSpaceOnUse" x="0" y="0" width="25" height="25">
<rect x="0.783264" y="0.65918" width="24" height="24" fill="#D9D9D9"/>
</mask>
<g mask="url(#mask0_49_53)">
<path d="M5.78326 19.6592H7.18326L15.8083 11.0342L14.4083 9.63418L5.78326 18.2592V19.6592ZM20.0833 9.58418L15.8333 5.38418L17.2333 3.98418C17.6166 3.60085 18.0874 3.40918 18.6458 3.40918C19.2041 3.40918 19.6749 3.60085 20.0583 3.98418L21.4583 5.38418C21.8416 5.76751 22.0416 6.23001 22.0583 6.77168C22.0749 7.31335 21.8916 7.77585 21.5083 8.15918L20.0833 9.58418ZM18.6333 11.0592L8.03326 21.6592H3.78326V17.4092L14.3833 6.80918L18.6333 11.0592Z" fill="#1C1B1F"/>
</g>
</svg>
