<svg width="25" height="25" viewBox="0 0 25 25" fill="none" xmlns="http://www.w3.org/2000/svg">
<mask id="mask0_53_62" style="mask-type:alpha" maskUnits="userSpaceOnUse" x="0" y="0" width="25" height="25">
<rect x="0.161499" y="0.625488" width="24" height="24" fill="#D9D9D9"/>
</mask>
<g mask="url(#mask0_53_62)">
<path d="M18.1615 21.6255H7.1615V8.62549L14.1615 1.62549L15.4115 2.87549C15.5282 2.99215 15.624 3.15049 15.699 3.35049C15.774 3.55049 15.8115 3.74215 15.8115 3.92549V4.27549L14.7115 8.62549H21.1615C21.6948 8.62549 22.1615 8.82549 22.5615 9.22549C22.9615 9.62549 23.1615 10.0922 23.1615 10.6255V12.6255C23.1615 12.7422 23.1448 12.8672 23.1115 13.0005C23.0782 13.1338 23.0448 13.2588 23.0115 13.3755L20.0115 20.4255C19.8615 20.7588 19.6115 21.0422 19.2615 21.2755C18.9115 21.5088 18.5448 21.6255 18.1615 21.6255ZM9.1615 19.6255H18.1615L21.1615 12.6255V10.6255H12.1615L13.5115 5.12549L9.1615 9.47549V19.6255ZM7.1615 8.62549V10.6255H4.1615V19.6255H7.1615V21.6255H2.1615V8.62549H7.1615Z" fill="#1C1B1F"/>
</g>
</svg>
